<svg xmlns="http://www.w3.org/2000/svg" width="30.964" height="30.963" viewBox="0 0 30.964 30.963">
  <g id="vuesax_bold_ftx-token-_ftt_" data-name="vuesax/bold/ftx-token-(ftt)" transform="translate(-164 108)">
    <g id="ftx-token-_ftt_" data-name="ftx-token-(ftt)" transform="translate(164 -108)">
      <path id="BG_197" data-name="BG 197" d="M0,0H30.963V30.963H0Z" fill="none"/>
      <path id="Vector" d="M16.772,0H1.29A1.294,1.294,0,0,0,0,1.29v3.87a1.294,1.294,0,0,0,1.29,1.29H16.772a1.294,1.294,0,0,0,1.29-1.29V1.29A1.294,1.294,0,0,0,16.772,0Z" transform="translate(10.321 2.58)" fill="#fff"/>
      <path id="Vector-2" data-name="Vector" d="M5.161,0H1.29A1.294,1.294,0,0,0,0,1.29v3.87a1.294,1.294,0,0,0,1.29,1.29h3.87a1.294,1.294,0,0,0,1.29-1.29V1.29A1.294,1.294,0,0,0,5.161,0Z" transform="translate(9.031 21.932)" fill="#fff"/>
      <path id="Vector-3" data-name="Vector" d="M5.161,0H1.29A1.294,1.294,0,0,0,0,1.29v3.87a1.294,1.294,0,0,0,1.29,1.29h3.87a1.294,1.294,0,0,0,1.29-1.29V1.29A1.294,1.294,0,0,0,5.161,0Z" transform="translate(2.58 12.256)" fill="#fff"/>
      <path id="Vector-4" data-name="Vector" d="M9.676,0H1.29A1.294,1.294,0,0,0,0,1.29V4.8a1.294,1.294,0,0,0,1.29,1.29H9.676a1.294,1.294,0,0,0,1.29-1.29V1.29A1.294,1.294,0,0,0,9.676,0Z" transform="translate(12.256 12.437)" fill="#fff"/>
      <path id="Vector-5" data-name="Vector" d="M0,0H30.963V30.963H0Z" fill="none" opacity="0"/>
    </g>
  </g>
</svg>
